<svg width="128" height="128" viewBox="0 0 128 128" fill="none" xmlns="http://www.w3.org/2000/svg">
  <rect width="128" height="128" rx="32" fill="#09090B"/>
  <rect x="10" y="10" width="108" height="108" rx="26" stroke="url(#paint0_linear)" stroke-opacity="0.36"/>
  <path d="M40 88V40H63.52C69.28 40 73.8 41.44 77.08 44.32C80.4133 47.1467 82.08 51.08 82.08 56.12C82.08 59.7733 81.0933 62.92 79.12 65.56C77.1467 68.1467 74.3733 70 70.8 71.12L84.96 88H73.44L60.72 72.88H49.76V88H40ZM49.76 65.12H62.56C65.92 65.12 68.5067 64.3467 70.32 62.8C72.1333 61.2533 73.04 59.0933 73.04 56.32C73.04 53.5467 72.1333 51.4133 70.32 49.92C68.56 48.3733 65.9733 47.6 62.56 47.6H49.76V65.12Z" fill="white"/>
  <circle cx="92" cy="37" r="8" fill="#67E8F9"/>
  <defs>
    <linearGradient id="paint0_linear" x1="18" y1="18" x2="106" y2="110" gradientUnits="userSpaceOnUse">
      <stop stop-color="#67E8F9"/>
      <stop offset="1" stop-color="#FFFFFF" stop-opacity="0.08"/>
    </linearGradient>
  </defs>
</svg>
